<svg width="10" height="7" viewBox="0 0 10 7" fill="none" xmlns="http://www.w3.org/2000/svg">
<path d="M0.498632 5.06875L4.69863 0.85625C4.74863 0.80625 4.8028 0.770917 4.86113 0.75025C4.91947 0.72925 4.98197 0.71875 5.04863 0.71875C5.1153 0.71875 5.1778 0.72925 5.23613 0.75025C5.29447 0.770917 5.34863 0.80625 5.39863 0.85625L9.61113 5.06875C9.7278 5.18542 9.78613 5.33125 9.78613 5.50625C9.78613 5.68125 9.72363 5.83125 9.59863 5.95625C9.47363 6.08125 9.3278 6.14375 9.16113 6.14375C8.99447 6.14375 8.84863 6.08125 8.72363 5.95625L5.04863 2.28125L1.37363 5.95625C1.25697 6.07292 1.1133 6.13125 0.942633 6.13125C0.771633 6.13125 0.623632 6.06875 0.498632 5.94375C0.373632 5.81875 0.311132 5.67292 0.311132 5.50625C0.311132 5.33958 0.373632 5.19375 0.498632 5.06875Z" fill="black"/>
</svg>
