<svg width="17" height="17" viewBox="0 0 17 17" fill="none" xmlns="http://www.w3.org/2000/svg">
<mask id="mask0_1_252898" style="mask-type:alpha" maskUnits="userSpaceOnUse" x="0" y="0" width="17" height="17">
<rect x="0.0488281" y="0.505859" width="16" height="16" fill="#D9D9D9"/>
</mask>
<g mask="url(#mask0_1_252898)">
<path d="M6.04948 14.5059C5.86059 14.5059 5.70237 14.4419 5.57481 14.3139C5.44681 14.1863 5.38281 14.0281 5.38281 13.8392V13.1725H2.71615C2.34948 13.1725 2.0357 13.0421 1.77481 12.7812C1.51348 12.5199 1.38281 12.2059 1.38281 11.8392V3.83919C1.38281 3.47253 1.51348 3.15853 1.77481 2.89719C2.0357 2.6363 2.34948 2.50586 2.71615 2.50586H13.3828C13.7495 2.50586 14.0635 2.6363 14.3248 2.89719C14.5857 3.15853 14.7161 3.47253 14.7161 3.83919V11.8392C14.7161 12.2059 14.5857 12.5199 14.3248 12.7812C14.0635 13.0421 13.7495 13.1725 13.3828 13.1725H10.7161V13.8392C10.7161 14.0281 10.6524 14.1863 10.5248 14.3139C10.3968 14.4419 10.2384 14.5059 10.0495 14.5059H6.04948ZM2.71615 11.8392H13.3828V3.83919H2.71615V11.8392Z" fill="white"/>
<path d="M6.40815 9.45603V5.88937C6.40815 5.6227 6.52481 5.42826 6.75815 5.30603C6.99148 5.18381 7.21926 5.19492 7.44148 5.33937L10.2081 7.10603C10.4193 7.22826 10.5248 7.41714 10.5248 7.6727C10.5248 7.92826 10.4193 8.11714 10.2081 8.23937L7.44148 10.006C7.21926 10.1505 6.99148 10.1616 6.75815 10.0394C6.52481 9.91714 6.40815 9.7227 6.40815 9.45603Z" fill="white"/>
</g>
</svg>
