<svg width="24" height="24" viewBox="0 0 24 24" fill="none" xmlns="http://www.w3.org/2000/svg">
<path fill-rule="evenodd" clip-rule="evenodd" d="M6.97441 0.68717C8.20724 0.63151 8.60031 0.619141 11.7407 0.619141C14.8811 0.619141 15.2742 0.63254 16.5059 0.68717C17.7377 0.7418 18.5785 0.934551 19.3142 1.21389C20.0846 1.4994 20.7835 1.94572 21.3616 2.52294C21.9501 3.08883 22.4042 3.77325 22.6942 4.52982C22.9801 5.25135 23.1756 6.07595 23.2324 7.28193C23.2891 8.49307 23.3017 8.87857 23.3017 11.9574C23.3017 15.0373 23.2881 15.4228 23.2324 16.6319C23.1767 17.8379 22.9801 18.6625 22.6942 19.384C22.4042 20.1407 21.9494 20.8262 21.3616 21.393C20.7835 21.9702 20.0846 22.4155 19.3142 22.7C18.5785 22.9803 17.7377 23.172 16.508 23.2277C15.2742 23.2834 14.8811 23.2957 11.7407 23.2957C8.60031 23.2957 8.20724 23.2823 6.97441 23.2277C5.74474 23.1731 4.90394 22.9803 4.16824 22.7C3.39672 22.4154 2.6977 21.9694 2.11984 21.393C1.53167 20.8267 1.07652 20.1415 0.786115 19.385C0.501294 18.6635 0.305808 17.8389 0.249054 16.6329C0.1923 15.4218 0.179688 15.0363 0.179688 11.9574C0.179688 8.87754 0.193351 8.49204 0.249054 7.284C0.304757 6.07595 0.501294 5.25135 0.786115 4.52982C1.07695 3.77333 1.53245 3.08812 2.12089 2.52191C2.69793 1.94521 3.39625 1.49883 4.16719 1.21389C4.90289 0.934551 5.74369 0.742831 6.97336 0.68717H6.97441ZM16.4124 2.72806C15.1932 2.67343 14.8275 2.6621 11.7407 2.6621C8.65391 2.6621 8.28816 2.67343 7.069 2.72806C5.94128 2.77857 5.3296 2.96308 4.92181 3.11872C4.38264 3.32487 3.99693 3.56916 3.59229 3.966C3.20872 4.33197 2.91353 4.77749 2.72837 5.2699C2.56966 5.66984 2.38154 6.26973 2.33004 7.37573C2.27433 8.57141 2.26277 8.93011 2.26277 11.9574C2.26277 14.9848 2.27433 15.3435 2.33004 16.5391C2.38154 17.6451 2.56966 18.245 2.72837 18.645C2.91334 19.1366 3.20867 19.583 3.59229 19.9489C3.9654 20.3251 4.42048 20.6147 4.92181 20.7962C5.3296 20.9518 5.94128 21.1363 7.069 21.1868C8.28816 21.2414 8.65286 21.2528 11.7407 21.2528C14.8285 21.2528 15.1932 21.2414 16.4124 21.1868C17.5401 21.1363 18.1518 20.9518 18.5596 20.7962C19.0988 20.59 19.4845 20.3457 19.8891 19.9489C20.2727 19.583 20.5681 19.1366 20.753 18.645C20.9117 18.245 21.0999 17.6451 21.1514 16.5391C21.2071 15.3435 21.2186 14.9848 21.2186 11.9574C21.2186 8.93011 21.2071 8.57141 21.1514 7.37573C21.0999 6.26973 20.9117 5.66984 20.753 5.2699C20.5428 4.74113 20.2938 4.36284 19.8891 3.966C19.5159 3.58985 19.0617 3.30035 18.5596 3.11872C18.1518 2.96308 17.5401 2.77857 16.4124 2.72806ZM10.264 15.4527C11.0887 15.7894 12.007 15.8348 12.862 15.5813C13.7171 15.3277 14.4559 14.7909 14.9522 14.0625C15.4485 13.3341 15.6715 12.4593 15.5832 11.5875C15.4949 10.7157 15.1008 9.90105 14.4681 9.28263C14.0647 8.88731 13.577 8.58461 13.0401 8.39633C12.5032 8.20805 11.9303 8.13886 11.3629 8.19376C10.7954 8.24865 10.2474 8.42625 9.75831 8.71379C9.26923 9.00132 8.85123 9.39162 8.53442 9.8566C8.2176 10.3216 8.00985 10.8497 7.92611 11.4028C7.84237 11.956 7.88474 12.5205 8.05015 13.0557C8.21557 13.5909 8.49992 14.0835 8.88274 14.498C9.26555 14.9124 9.73731 15.2385 10.264 15.4527ZM7.5388 7.83648C8.0906 7.29531 8.74569 6.86603 9.46665 6.57315C10.1876 6.28027 10.9603 6.12952 11.7407 6.12952C12.5211 6.12952 13.2938 6.28027 14.0148 6.57315C14.7357 6.86603 15.3908 7.29531 15.9426 7.83648C16.4944 8.37765 16.9321 9.02011 17.2308 9.72719C17.5294 10.4343 17.6831 11.1921 17.6831 11.9574C17.6831 12.7228 17.5294 13.4806 17.2308 14.1877C16.9321 14.8948 16.4944 15.5372 15.9426 16.0784C14.8282 17.1713 13.3167 17.7853 11.7407 17.7853C10.1647 17.7853 8.65321 17.1713 7.5388 16.0784C6.42439 14.9854 5.79832 13.5031 5.79832 11.9574C5.79832 10.4118 6.42439 8.92943 7.5388 7.83648ZM19.001 6.99745C19.1378 6.87094 19.2472 6.71881 19.3229 6.55007C19.3987 6.38133 19.4391 6.1994 19.4418 6.01507C19.4446 5.83073 19.4096 5.64772 19.3389 5.47689C19.2682 5.30605 19.1633 5.15086 19.0304 5.0205C18.8975 4.89014 18.7392 4.78726 18.5651 4.71795C18.3909 4.64864 18.2043 4.61432 18.0163 4.61701C17.8283 4.61969 17.6428 4.65934 17.4708 4.7336C17.2987 4.80786 17.1436 4.91522 17.0146 5.04932C16.7638 5.31013 16.6264 5.65656 16.6318 6.01507C16.6371 6.37357 16.7847 6.71593 17.0432 6.96945C17.3017 7.22298 17.6508 7.36772 18.0163 7.37295C18.3819 7.37818 18.7351 7.24348 19.001 6.99745Z" fill="white"/>
</svg>
