<svg width="17" height="17" viewBox="0 0 17 17" fill="none" xmlns="http://www.w3.org/2000/svg">
<mask id="mask0_1_254845" style="mask-type:alpha" maskUnits="userSpaceOnUse" x="0" y="0" width="17" height="17">
<rect x="0.0996094" y="0.888672" width="16" height="16" fill="#D9D9D9"/>
</mask>
<g mask="url(#mask0_1_254845)">
<path d="M6.10026 14.8887C5.91137 14.8887 5.75315 14.8247 5.62559 14.6967C5.49759 14.5691 5.43359 14.4109 5.43359 14.222V13.5553H2.76693C2.40026 13.5553 2.08648 13.4249 1.82559 13.164C1.56426 12.9027 1.43359 12.5887 1.43359 12.222V4.22201C1.43359 3.85534 1.56426 3.54134 1.82559 3.28001C2.08648 3.01912 2.40026 2.88867 2.76693 2.88867H13.4336C13.8003 2.88867 14.1143 3.01912 14.3756 3.28001C14.6365 3.54134 14.7669 3.85534 14.7669 4.22201V12.222C14.7669 12.5887 14.6365 12.9027 14.3756 13.164C14.1143 13.4249 13.8003 13.5553 13.4336 13.5553H10.7669V14.222C10.7669 14.4109 10.7031 14.5691 10.5756 14.6967C10.4476 14.8247 10.2891 14.8887 10.1003 14.8887H6.10026ZM2.76693 12.222H13.4336V4.22201H2.76693V12.222Z" fill="#1F2029"/>
<path d="M6.45893 9.83885V6.27218C6.45893 6.00551 6.57559 5.81107 6.80893 5.68885C7.04226 5.56662 7.27004 5.57773 7.49226 5.72218L10.2589 7.48885C10.47 7.61107 10.5756 7.79996 10.5756 8.05551C10.5756 8.31107 10.47 8.49996 10.2589 8.62218L7.49226 10.3888C7.27004 10.5333 7.04226 10.5444 6.80893 10.4222C6.57559 10.3 6.45893 10.1055 6.45893 9.83885Z" fill="#1F2029"/>
</g>
</svg>
