<svg width="11" height="7" viewBox="0 0 11 7" fill="none" xmlns="http://www.w3.org/2000/svg">
<path d="M0.775976 5.23477L4.97598 1.02227C5.02598 0.972265 5.08014 0.936932 5.13848 0.916265C5.19681 0.895265 5.25931 0.884766 5.32598 0.884766C5.39264 0.884766 5.45514 0.895265 5.51348 0.916265C5.57181 0.936932 5.62598 0.972265 5.67598 1.02227L9.88848 5.23477C10.0051 5.35143 10.0635 5.49727 10.0635 5.67227C10.0635 5.84727 10.001 5.99727 9.87598 6.12227C9.75098 6.24727 9.60514 6.30977 9.43848 6.30977C9.27181 6.30977 9.12598 6.24727 9.00098 6.12227L5.32598 2.44727L1.65098 6.12227C1.53431 6.23893 1.39064 6.29727 1.21998 6.29727C1.04898 6.29727 0.900976 6.23477 0.775976 6.10977C0.650976 5.98477 0.588476 5.83893 0.588476 5.67227C0.588476 5.5056 0.650976 5.35977 0.775976 5.23477Z" fill="black"/>
</svg>
