<svg width="29" height="30" viewBox="0 0 29 30" fill="none" xmlns="http://www.w3.org/2000/svg">
<path d="M14.0488 0.511719C6.31684 0.511719 0.0488281 6.77973 0.0488281 14.5117C0.0488281 22.2437 6.31684 28.5117 14.0488 28.5117C21.7808 28.5117 28.0488 22.2437 28.0488 14.5117C28.0488 6.77973 21.7808 0.511719 14.0488 0.511719ZM14.0488 5.43359C16.0734 5.43359 17.7146 7.37325 17.7146 9.76588C17.7146 12.1585 16.0734 14.0982 14.0488 14.0982C12.0243 14.0982 10.3831 12.1585 10.3831 9.76588C10.3831 7.37325 12.0243 5.43359 14.0488 5.43359ZM20.2537 22.4961H7.84398C7.22175 22.4961 6.71731 21.9917 6.71731 21.3694C6.71731 18.4579 9.99971 16.0977 14.0488 16.0977C18.0979 16.0977 21.3803 18.4579 21.3803 21.3694C21.3803 21.9917 20.876 22.4961 20.2537 22.4961Z" fill="white" stroke="white" stroke-width="1.5625"/>
</svg>
