<svg width="34" height="34" viewBox="0 0 34 34" fill="none" xmlns="http://www.w3.org/2000/svg">
<path d="M26.8778 8.14274L19.7691 3.98166C18.4078 3.18841 16.2766 3.18841 14.9153 3.98166L7.73781 8.17057C4.89156 10.1189 4.72656 10.4112 4.72656 13.5146V21.0713C4.72656 24.1747 4.89156 24.4809 7.79281 26.4571L14.9016 30.6182C15.5891 31.0217 16.4691 31.2166 17.3353 31.2166C18.2016 31.2166 19.0816 31.0217 19.7553 30.6182L26.9328 26.4292C29.7791 24.4809 29.9441 24.1887 29.9441 21.0852V13.5146C29.9441 10.4112 29.7791 10.1189 26.8778 8.14274Z" fill="black"/>
<path d="M17.3359 21.8232C19.804 21.8232 21.8047 19.7982 21.8047 17.3003C21.8047 14.8023 19.804 12.7773 17.3359 12.7773C14.8679 12.7773 12.8672 14.8023 12.8672 17.3003C12.8672 19.7982 14.8679 21.8232 17.3359 21.8232Z" fill="white"/>
</svg>
