<svg width="13" height="13" viewBox="0 0 13 13" fill="none" xmlns="http://www.w3.org/2000/svg">
<mask id="mask0_1_251151" style="mask-type:alpha" maskUnits="userSpaceOnUse" x="0" y="0" width="13" height="13">
<rect x="0.326172" y="12.6719" width="12" height="12" transform="rotate(-90 0.326172 12.6719)" fill="#D9D9D9"/>
</mask>
<g mask="url(#mask0_1_251151)">
<path d="M10.8764 5.10898L6.67637 9.32148C6.62637 9.37148 6.5722 9.40682 6.51387 9.42748C6.45553 9.44848 6.39303 9.45898 6.32637 9.45898C6.2597 9.45898 6.1972 9.44848 6.13887 9.42748C6.08053 9.40682 6.02637 9.37148 5.97637 9.32148L1.76387 5.10898C1.6472 4.99232 1.58887 4.84648 1.58887 4.67148C1.58887 4.49648 1.65137 4.34648 1.77637 4.22148C1.90137 4.09648 2.0472 4.03398 2.21387 4.03398C2.38053 4.03398 2.52637 4.09648 2.65137 4.22148L6.32637 7.89648L10.0014 4.22148C10.118 4.10482 10.2617 4.04648 10.4324 4.04648C10.6034 4.04648 10.7514 4.10898 10.8764 4.23398C11.0014 4.35898 11.0639 4.50482 11.0639 4.67148C11.0639 4.83815 11.0014 4.98398 10.8764 5.10898Z" fill="black"/>
</g>
</svg>
