<svg width="36" height="36" viewBox="0 0 36 36" fill="none" xmlns="http://www.w3.org/2000/svg">
<path d="M18.1465 0.988281C8.48149 0.988281 0.646484 8.82329 0.646484 18.4883C0.646484 28.1533 8.48149 35.9883 18.1465 35.9883C27.8115 35.9883 35.6465 28.1533 35.6465 18.4883C35.6465 8.82329 27.8115 0.988281 18.1465 0.988281ZM18.1465 7.14062C20.6771 7.14062 22.7287 9.5652 22.7287 12.556C22.7287 15.5468 20.6771 17.9713 18.1465 17.9713C15.6158 17.9713 13.5643 15.5468 13.5643 12.556C13.5643 9.5652 15.6158 7.14062 18.1465 7.14062ZM25.9025 28.4688H10.3904C9.61264 28.4688 8.98209 27.8382 8.98209 27.0604C8.98209 23.421 13.0851 20.4707 18.1465 20.4707C23.2079 20.4707 27.3109 23.421 27.3109 27.0604C27.3109 27.8382 26.6804 28.4688 25.9025 28.4688Z" fill="black"/>
</svg>
