<svg width="25" height="24" viewBox="0 0 25 24" fill="none" xmlns="http://www.w3.org/2000/svg">
<path fill-rule="evenodd" clip-rule="evenodd" d="M3.3291 11.998C3.3291 11.5838 3.66489 11.248 4.0791 11.248H20.5791C20.9933 11.248 21.3291 11.5838 21.3291 11.998C21.3291 12.4123 20.9933 12.748 20.5791 12.748H4.0791C3.66489 12.748 3.3291 12.4123 3.3291 11.998Z" fill="black"/>
<path fill-rule="evenodd" clip-rule="evenodd" d="M3.3291 5.99805C3.3291 5.58383 3.66489 5.24805 4.0791 5.24805H15.3291C15.7433 5.24805 16.0791 5.58383 16.0791 5.99805C16.0791 6.41226 15.7433 6.74805 15.3291 6.74805H4.0791C3.66489 6.74805 3.3291 6.41226 3.3291 5.99805Z" fill="black"/>
<path fill-rule="evenodd" clip-rule="evenodd" d="M3.3291 17.998C3.3291 17.5838 3.66489 17.248 4.0791 17.248H15.3291C15.7433 17.248 16.0791 17.5838 16.0791 17.998C16.0791 18.4123 15.7433 18.748 15.3291 18.748H4.0791C3.66489 18.748 3.3291 18.4123 3.3291 17.998Z" fill="black"/>
</svg>
