<svg width="20" height="17" viewBox="0 0 20 17" fill="none" xmlns="http://www.w3.org/2000/svg">
<path d="M3.23051 0.841797H16.4305C17.2422 0.841743 18.0231 1.15935 18.6131 1.72947C19.2031 2.29959 19.5574 3.07899 19.6034 3.9078L19.6083 4.0918V13.5918C19.6083 14.4219 19.2978 15.2206 18.7403 15.824C18.1829 16.4274 17.4208 16.7898 16.6104 16.8368L16.4305 16.8418H3.23051C2.41882 16.8419 1.63788 16.5242 1.04789 15.9541C0.457893 15.384 0.103578 14.6046 0.0576234 13.7758L0.0527344 13.5918V4.0918C0.0526812 3.26166 0.363232 2.46297 0.92068 1.85957C1.47813 1.25616 2.24021 0.893796 3.0506 0.846797L3.23051 0.841797ZM18.1416 6.2148L10.1727 10.5048C10.0828 10.5534 9.98386 10.5823 9.88236 10.5897C9.78085 10.5971 9.67895 10.5829 9.58313 10.5478L9.48927 10.5058L1.5194 6.2158V13.5918C1.51942 14.031 1.6809 14.4541 1.9718 14.7772C2.2627 15.1003 2.66174 15.2997 3.08971 15.3358L3.23051 15.3418H16.4305C16.8601 15.3418 17.274 15.1765 17.5899 14.8787C17.9058 14.581 18.1007 14.1727 18.1358 13.7348L18.1416 13.5918V6.2148ZM16.4305 2.3418H3.23051C2.80108 2.34181 2.38736 2.50697 2.07146 2.80448C1.75557 3.10199 1.5606 3.5101 1.52527 3.9478L1.5194 4.0918V4.5208L9.83051 8.9938L18.1416 4.5198V4.0918C18.1416 3.65245 17.98 3.22919 17.6889 2.90609C17.3978 2.58299 16.9985 2.3837 16.5703 2.3478L16.4305 2.3418Z" fill="white"/>
</svg>
