<svg width="38" height="37" viewBox="0 0 38 37" fill="none" xmlns="http://www.w3.org/2000/svg">
<path d="M19.0273 1C9.36235 1 1.52734 8.83501 1.52734 18.5C1.52734 28.165 9.36235 36 19.0273 36C28.6923 36 36.5273 28.165 36.5273 18.5C36.5273 8.83501 28.6923 1 19.0273 1ZM19.0273 7.15234C21.558 7.15234 23.6095 9.57691 23.6095 12.5677C23.6095 15.5585 21.558 17.9831 19.0273 17.9831C16.4967 17.9831 14.4451 15.5585 14.4451 12.5677C14.4451 9.57691 16.4967 7.15234 19.0273 7.15234ZM26.7834 28.4805H11.2713C10.4935 28.4805 9.86295 27.8499 9.86295 27.0721C9.86295 23.4327 13.9659 20.4824 19.0273 20.4824C24.0887 20.4824 28.1917 23.4327 28.1917 27.0721C28.1917 27.8499 27.5613 28.4805 26.7834 28.4805Z" fill="white" stroke="white" stroke-width="1.5625"/>
</svg>
