<svg width="31" height="31" viewBox="0 0 31 31" fill="none" xmlns="http://www.w3.org/2000/svg">
<path d="M24.698 9.77953C24.698 7.48058 23.7255 5.27579 21.9944 3.65019C20.2633 2.02458 17.9154 1.11133 15.4672 1.11133C13.0191 1.11133 10.6712 2.02458 8.94011 3.65019C7.209 5.27579 6.23648 7.48058 6.23648 9.77953C6.23648 19.8924 1.62109 22.7818 1.62109 22.7818H29.3134C29.3134 22.7818 24.698 19.8924 24.698 9.77953Z" stroke="white" stroke-width="2" stroke-linecap="round" stroke-linejoin="round"/>
<path d="M18.1287 28.5605C17.8583 28.9984 17.47 29.3619 17.0029 29.6145C16.5358 29.8671 16.0062 30.0001 15.4672 30.0001C14.9282 30.0001 14.3986 29.8671 13.9315 29.6145C13.4644 29.3619 13.0761 28.9984 12.8057 28.5605" stroke="white" stroke-width="2" stroke-linecap="round" stroke-linejoin="round"/>
</svg>
