<svg width="20" height="20" viewBox="0 0 20 20" fill="none" xmlns="http://www.w3.org/2000/svg">
<path fill-rule="evenodd" clip-rule="evenodd" d="M4.71669 0H15.2833C16.571 0 17.2148 5.96046e-08 17.734 0.16261C18.7187 0.470959 19.4917 1.18719 19.8244 2.09946C20 2.58055 20 3.17705 20 4.37005V18.3742C20 19.2324 18.9056 19.6878 18.2132 19.1176C17.8064 18.7826 17.1936 18.7826 16.7868 19.1176L16.25 19.5597C15.5371 20.1468 14.4629 20.1468 13.75 19.5597C13.0371 18.9726 11.9629 18.9726 11.25 19.5597C10.5371 20.1468 9.46289 20.1468 8.75 19.5597C8.03711 18.9726 6.96288 18.9726 6.25 19.5597C5.53712 20.1468 4.46288 20.1468 3.75 19.5597L3.21322 19.1176C2.80648 18.7826 2.19352 18.7826 1.78678 19.1176C1.09444 19.6878 0 19.2324 0 18.3742V4.37005C0 3.17705 -8.27842e-08 2.58055 0.1755 2.09946C0.508311 1.18719 1.28136 0.470959 2.26599 0.16261C2.78523 5.96046e-08 3.42904 0 4.71669 0ZM4.44444 4.74999C3.98421 4.74999 3.61111 5.08578 3.61111 5.49999C3.61111 5.9142 3.98421 6.24999 4.44444 6.24999H5C5.46023 6.24999 5.83333 5.9142 5.83333 5.49999C5.83333 5.08578 5.46023 4.74999 5 4.74999H4.44444ZM8.33333 4.74999C7.87311 4.74999 7.5 5.08578 7.5 5.49999C7.5 5.9142 7.87311 6.24999 8.33333 6.24999H15.5556C16.0158 6.24999 16.3889 5.9142 16.3889 5.49999C16.3889 5.08578 16.0158 4.74999 15.5556 4.74999H8.33333ZM4.44444 8.24999C3.98421 8.24999 3.61111 8.58579 3.61111 8.99999C3.61111 9.41419 3.98421 9.74999 4.44444 9.74999H5C5.46023 9.74999 5.83333 9.41419 5.83333 8.99999C5.83333 8.58579 5.46023 8.24999 5 8.24999H4.44444ZM8.33333 8.24999C7.87311 8.24999 7.5 8.58579 7.5 8.99999C7.5 9.41419 7.87311 9.74999 8.33333 9.74999H15.5556C16.0158 9.74999 16.3889 9.41419 16.3889 8.99999C16.3889 8.58579 16.0158 8.24999 15.5556 8.24999H8.33333ZM4.44444 11.75C3.98421 11.75 3.61111 12.0858 3.61111 12.5C3.61111 12.9142 3.98421 13.25 4.44444 13.25H5C5.46023 13.25 5.83333 12.9142 5.83333 12.5C5.83333 12.0858 5.46023 11.75 5 11.75H4.44444ZM8.33333 11.75C7.87311 11.75 7.5 12.0858 7.5 12.5C7.5 12.9142 7.87311 13.25 8.33333 13.25H15.5556C16.0158 13.25 16.3889 12.9142 16.3889 12.5C16.3889 12.0858 16.0158 11.75 15.5556 11.75H8.33333Z" fill="white"/>
</svg>
