<svg width="15" height="17" viewBox="0 0 15 17" fill="none" xmlns="http://www.w3.org/2000/svg">
<path d="M8.62464 0.366028H7.35192C6.8456 0.366028 6.36001 0.576742 6.00199 0.951814C5.64396 1.32689 5.44283 1.83559 5.44283 2.36603V3.03269H1.62464C1.45587 3.03269 1.29401 3.10293 1.17467 3.22796C1.05533 3.35298 0.988281 3.52255 0.988281 3.69936C0.988281 3.87617 1.05533 4.04574 1.17467 4.17077C1.29401 4.29579 1.45587 4.36603 1.62464 4.36603H2.26101V13.6994C2.26101 14.4066 2.52919 15.0849 3.00655 15.585C3.48392 16.0851 4.13137 16.366 4.80646 16.366H11.1701C11.8452 16.366 12.4926 16.0851 12.97 15.585C13.4474 15.0849 13.7156 14.4066 13.7156 13.6994V4.36603H14.3519C14.5207 4.36603 14.6826 4.29579 14.8019 4.17077C14.9212 4.04574 14.9883 3.87617 14.9883 3.69936C14.9883 3.52255 14.9212 3.35298 14.8019 3.22796C14.6826 3.10293 14.5207 3.03269 14.3519 3.03269H10.5337V2.36603C10.5337 1.83559 10.3326 1.32689 9.97458 0.951814C9.61655 0.576742 9.13097 0.366028 8.62464 0.366028ZM6.71555 2.36603C6.71555 2.18922 6.7826 2.01965 6.90194 1.89462C7.02128 1.7696 7.18314 1.69936 7.35192 1.69936H8.62464C8.79342 1.69936 8.95528 1.7696 9.07462 1.89462C9.19396 2.01965 9.26101 2.18922 9.26101 2.36603V3.03269H6.71555V2.36603ZM12.4428 13.6994C12.4428 14.053 12.3087 14.3921 12.0701 14.6422C11.8314 14.8922 11.5076 15.0327 11.1701 15.0327H4.80646C4.46891 15.0327 4.14519 14.8922 3.90651 14.6422C3.66783 14.3921 3.53374 14.053 3.53374 13.6994V4.36603H12.4428V13.6994Z" fill="white"/>
<path d="M7.98793 6.36603C7.81915 6.36603 7.65729 6.43627 7.53795 6.56129C7.41861 6.68631 7.35156 6.85588 7.35156 7.03269V12.366C7.35156 12.5428 7.41861 12.7124 7.53795 12.8374C7.65729 12.9625 7.81915 13.0327 7.98793 13.0327C8.1567 13.0327 8.31856 12.9625 8.4379 12.8374C8.55724 12.7124 8.62429 12.5428 8.62429 12.366V7.03269C8.62429 6.85588 8.55724 6.68631 8.4379 6.56129C8.31856 6.43627 8.1567 6.36603 7.98793 6.36603Z" fill="white"/>
<path d="M9.89844 12.366C9.89844 12.5428 9.96548 12.7124 10.0848 12.8374C10.2042 12.9625 10.366 13.0327 10.5348 13.0327C10.7036 13.0327 10.8654 12.9625 10.9848 12.8374C11.1041 12.7124 11.1712 12.5428 11.1712 12.366V7.03269C11.1712 6.85588 11.1041 6.68631 10.9848 6.56129C10.8654 6.43627 10.7036 6.36603 10.5348 6.36603C10.366 6.36603 10.2042 6.43627 10.0848 6.56129C9.96548 6.68631 9.89844 6.85588 9.89844 7.03269V12.366Z" fill="white"/>
<path d="M5.443 6.36603C5.27423 6.36603 5.11237 6.43627 4.99303 6.56129C4.87369 6.68631 4.80664 6.85588 4.80664 7.03269V12.366C4.80664 12.5428 4.87369 12.7124 4.99303 12.8374C5.11237 12.9625 5.27423 13.0327 5.443 13.0327C5.61178 13.0327 5.77364 12.9625 5.89298 12.8374C6.01232 12.7124 6.07937 12.5428 6.07937 12.366V7.03269C6.07937 6.85588 6.01232 6.68631 5.89298 6.56129C5.77364 6.43627 5.61178 6.36603 5.443 6.36603Z" fill="white"/>
</svg>
