<svg width="24" height="24" viewBox="0 0 24 24" fill="none" xmlns="http://www.w3.org/2000/svg">
<path d="M4.92901 2L6.34301 3.414C5.59904 4.15608 5.00906 5.03786 4.60697 6.00868C4.20488 6.9795 3.99861 8.02021 4.00001 9.071C4.00001 11.281 4.89501 13.281 6.34301 14.728L4.93001 16.141C3.99998 15.2136 3.26237 14.1117 2.75954 12.8984C2.25672 11.6851 1.9986 10.3844 2.00001 9.071C1.99833 7.75754 2.25623 6.45669 2.75889 5.24321C3.26154 4.02974 3.99904 2.92755 4.92901 2ZM19.071 2C20.001 2.92755 20.7385 4.02974 21.2411 5.24321C21.7438 6.45669 22.0017 7.75754 22 9.071C22.0017 10.3845 21.7438 11.6853 21.2411 12.8988C20.7385 14.1123 20.001 15.2144 19.071 16.142L17.657 14.728C18.401 13.9859 18.991 13.1041 19.393 12.1333C19.7951 11.1625 20.0014 10.1218 20 9.071C20 6.861 19.105 4.861 17.657 3.414L19.07 2.001L19.071 2ZM7.75701 4.828L9.17201 6.243C8.79997 6.61392 8.50491 7.05471 8.30378 7.54004C8.10264 8.02536 7.99941 8.54565 8.00001 9.071C8.00001 10.176 8.44801 11.176 9.17201 11.899L7.75701 13.314C7.19904 12.7574 6.75657 12.096 6.45504 11.3679C6.15352 10.6397 5.99888 9.85912 6.00001 9.071C6.00001 7.414 6.67201 5.914 7.75701 4.828ZM16.243 4.828C16.801 5.3846 17.2434 6.04599 17.545 6.77415C17.8465 7.50231 18.0011 8.28288 18 9.071C18.0011 9.85912 17.8465 10.6397 17.545 11.3679C17.2434 12.096 16.801 12.7574 16.243 13.314L14.828 11.899C15.2 11.5281 15.4951 11.0873 15.6962 10.602C15.8974 10.1166 16.0006 9.59635 16 9.071C16.0006 8.54565 15.8974 8.02536 15.6962 7.54004C15.4951 7.05471 15.2 6.61392 14.828 6.243L16.243 4.828ZM12 11.071C11.4696 11.071 10.9609 10.8603 10.5858 10.4852C10.2107 10.1101 10 9.60143 10 9.071C10 8.54057 10.2107 8.03186 10.5858 7.65679C10.9609 7.28171 11.4696 7.071 12 7.071C12.5304 7.071 13.0391 7.28171 13.4142 7.65679C13.7893 8.03186 14 8.54057 14 9.071C14 9.60143 13.7893 10.1101 13.4142 10.4852C13.0391 10.8603 12.5304 11.071 12 11.071ZM12 13.071C12.58 13.071 13.077 13.484 13.184 14.054L14.5 21.071H9.50001L10.816 14.054C10.923 13.484 11.42 13.071 12 13.071Z" fill="white"/>
</svg>
