<svg width="24" height="27" viewBox="0 0 24 27" fill="none" xmlns="http://www.w3.org/2000/svg">
<path d="M11.4375 3.83008C10.0774 3.83008 8.94225 4.88756 8.68125 6.29221H3V7.52328H8.68125C8.94225 8.92792 10.0763 9.98541 11.4375 9.98541C12.7987 9.98541 13.9327 8.92792 14.1937 7.52328H21V6.29221H14.1937C13.9327 4.88756 12.7976 3.83008 11.4375 3.83008Z" fill="white"/>
<path d="M17.0625 11.2166C15.7024 11.2166 14.5673 12.274 14.3063 13.6787H3V14.9098H14.3063C14.5673 16.3144 15.7013 17.3719 17.0625 17.3719C18.4237 17.3719 19.5578 16.3144 19.8188 14.9098H21V13.6787H19.8188C19.5578 12.274 18.4226 11.2166 17.0625 11.2166Z" fill="white"/>
<path d="M9.1875 17.3718C7.82737 17.3718 6.69225 18.4293 6.43125 19.834H3V21.065H6.43125C6.69225 22.4697 7.82625 23.5272 9.1875 23.5272C10.5487 23.5272 11.6827 22.4697 11.9437 21.065H21V19.834H11.9437C11.6827 18.4293 10.5476 17.3718 9.1875 17.3718Z" fill="white"/>
</svg>
