<svg width="163" height="116" viewBox="0 0 163 116" fill="none" xmlns="http://www.w3.org/2000/svg">
<rect x="0.5" y="0.180542" width="161.719" height="115" rx="4" fill="#858585" fill-opacity="0.66"/>
<rect x="3.19531" y="2.87585" width="156.328" height="5.83984" fill="#282828"/>
<rect width="57.0508" height="31.8945" transform="translate(3.19531 11.411)" fill="#282828"/>
<path d="M28.9512 30.9423V23.7745C28.9512 23.5782 29.0204 23.4138 29.1589 23.281C29.2974 23.1483 29.459 23.0819 29.6437 23.0819C29.7014 23.0819 29.762 23.0906 29.8255 23.1079C29.889 23.1252 29.9496 23.1512 30.0073 23.1858L35.6515 26.7697C35.7554 26.839 35.8333 26.9255 35.8853 27.0294C35.9372 27.1333 35.9632 27.243 35.9632 27.3584C35.9632 27.4738 35.9372 27.5835 35.8853 27.6873C35.8333 27.7912 35.7554 27.8778 35.6515 27.947L30.0073 31.531C29.9496 31.5656 29.889 31.5916 29.8255 31.6089C29.762 31.6262 29.7014 31.6348 29.6437 31.6348C29.459 31.6348 29.2974 31.5685 29.1589 31.4357C29.0204 31.303 28.9512 31.1385 28.9512 30.9423Z" fill="#B5B5B5"/>
<rect x="64.7383" y="11.411" width="94.7852" height="6.51367" fill="#282828"/>
<rect x="64.7383" y="19.8339" width="12.5781" height="6.51367" fill="#282828"/>
<rect x="64.7383" y="30.8397" width="94.7852" height="1.34766" fill="#282828"/>
<rect x="64.7383" y="33.9843" width="94.7852" height="1.34766" fill="#282828"/>
<rect x="64.7383" y="37.1288" width="94.7852" height="1.34766" fill="#282828"/>
<rect x="64.7383" y="40.2733" width="94.7852" height="1.34766" fill="#282828"/>
<rect x="64.7383" y="43.4178" width="94.7852" height="1.34766" fill="#282828"/>
<rect x="64.7383" y="46.5624" width="94.7852" height="1.34766" fill="#282828"/>
<rect x="64.7383" y="49.7069" width="94.7852" height="1.34766" fill="#282828"/>
<rect x="64.7383" y="52.8514" width="94.7852" height="1.34766" fill="#282828"/>
<rect x="64.7383" y="55.996" width="94.7852" height="1.34766" fill="#282828"/>
<rect x="64.7383" y="59.1405" width="94.7852" height="1.34766" fill="#282828"/>
<rect x="64.7383" y="62.285" width="94.7852" height="1.34766" fill="#282828"/>
<rect x="64.7383" y="65.4296" width="94.7852" height="1.34766" fill="#282828"/>
<rect x="64.7383" y="68.5741" width="28.1885" height="1.34766" fill="#282828"/>
</svg>
