<svg width="23" height="23" viewBox="0 0 23 23" fill="none" xmlns="http://www.w3.org/2000/svg">
<path d="M3.0161 15.5596C2.16617 14.1793 1.74121 13.4892 1.74121 11.4399C1.74121 9.39069 2.16617 8.7006 3.0161 7.32035C4.71317 4.56439 7.55932 1.43994 11.7412 1.43994C15.9231 1.43994 18.7692 4.56439 20.4663 7.32035C21.3162 8.7006 21.7412 9.39069 21.7412 11.4399C21.7412 13.4892 21.3162 14.1793 20.4663 15.5596C18.7692 18.3154 15.9231 21.4399 11.7412 21.4399C7.55932 21.4399 4.71317 18.3154 3.0161 15.5596Z" stroke="#48D179" stroke-width="2"/>
<path d="M14.7412 11.4399C14.7412 13.5111 13.3981 15.1899 11.7412 15.1899C10.0843 15.1899 8.74121 13.5111 8.74121 11.4399C8.74121 9.36882 10.0843 7.68994 11.7412 7.68994C13.3981 7.68994 14.7412 9.36882 14.7412 11.4399Z" stroke="#48D179" stroke-width="2"/>
</svg>
