<svg width="23" height="23" viewBox="0 0 23 23" fill="none" xmlns="http://www.w3.org/2000/svg">
<path d="M19.3482 15.9829H4.36133C2.98062 15.9829 1.86133 16.7973 1.86133 17.802V19.621C1.86133 20.6256 2.98062 21.4401 4.36133 21.4401H19.3482C20.729 21.4401 21.8482 20.6256 21.8482 19.621V17.802C21.8482 16.7973 20.729 15.9829 19.3482 15.9829Z" stroke="#A372D5" stroke-width="2" stroke-miterlimit="10"/>
<path d="M21.8613 17.8018V3.25899C21.8613 2.77655 21.5979 2.31387 21.1291 1.97273C20.6603 1.63159 20.0244 1.43994 19.3613 1.43994H4.36133C3.69829 1.43994 3.0624 1.63159 2.59356 1.97273C2.12472 2.31387 1.86133 2.77655 1.86133 3.25899V17.8018" stroke="#A372D5" stroke-width="2" stroke-miterlimit="10"/>
<path d="M14.3613 18.7163H19.3613" stroke="#A372D5" stroke-width="2" stroke-miterlimit="10"/>
<path d="M5.61846 19.621C6.3052 19.621 6.86191 19.216 6.86191 18.7163C6.86191 18.2166 6.3052 17.8115 5.61846 17.8115C4.93171 17.8115 4.375 18.2166 4.375 18.7163C4.375 19.216 4.93171 19.621 5.61846 19.621Z" fill="#A372D5"/>
</svg>
