<svg width="16" height="16" viewBox="0 0 16 16" fill="none" xmlns="http://www.w3.org/2000/svg">
<path d="M8.37891 0.122559C4.24336 0.122559 0.878906 3.48701 0.878906 7.62256C0.878906 11.7581 4.24336 15.1226 8.37891 15.1226C12.5145 15.1226 15.8789 11.7581 15.8789 7.62256C15.8789 3.48701 12.5145 0.122559 8.37891 0.122559ZM8.37891 14.1851C4.76039 14.1851 1.81641 11.2411 1.81641 7.62256C1.81641 4.00404 4.76016 1.06006 8.37891 1.06006C11.9974 1.06006 14.9414 4.00404 14.9414 7.62256C14.9414 11.2411 11.9974 14.1851 8.37891 14.1851Z" fill="white"/>
<path d="M9.10586 3.85834C8.93594 3.68561 8.72828 3.59912 8.48219 3.59912C8.23938 3.59912 8.03242 3.68561 7.86086 3.85834C7.68953 4.03107 7.60352 4.2385 7.60352 4.48037C7.60352 4.71896 7.69 4.92451 7.8632 5.09725C8.03641 5.26998 8.24313 5.35647 8.48219 5.35647C8.72453 5.35647 8.93172 5.27115 9.10328 5.09982C9.27484 4.92896 9.36063 4.72248 9.36063 4.48037C9.36063 4.23826 9.27578 4.03107 9.10586 3.85834Z" fill="white"/>
<path d="M9.26523 9.79686V5.92334H6.89453V7.08256H7.65883V9.79686H6.89453V10.9561H10.0138V9.79686H9.26523Z" fill="white"/>
</svg>
