<svg width="163" height="116" viewBox="0 0 163 116" fill="none" xmlns="http://www.w3.org/2000/svg">
<rect x="1.28125" y="0.680542" width="160.719" height="114" rx="3.5" fill="white"/>
<rect x="1.28125" y="0.680542" width="160.719" height="114" rx="3.5" stroke="#EEEEEE"/>
<rect x="3.47656" y="2.87585" width="156.328" height="5.83984" fill="#EEEEEE"/>
<rect width="57.0508" height="31.8945" transform="translate(3.47656 11.411)" fill="#EEEEEE"/>
<path d="M29.2324 30.9423V23.7745C29.2324 23.5782 29.3017 23.4138 29.4402 23.281C29.5787 23.1483 29.7403 23.0819 29.925 23.0819C29.9827 23.0819 30.0433 23.0906 30.1068 23.1079C30.1702 23.1252 30.2308 23.1512 30.2886 23.1858L35.9328 26.7697C36.0367 26.839 36.1146 26.9255 36.1665 27.0294C36.2185 27.1333 36.2444 27.243 36.2444 27.3584C36.2444 27.4738 36.2185 27.5835 36.1665 27.6873C36.1146 27.7912 36.0367 27.8778 35.9328 27.947L30.2886 31.531C30.2308 31.5656 30.1702 31.5916 30.1068 31.6089C30.0433 31.6262 29.9827 31.6348 29.925 31.6348C29.7403 31.6348 29.5787 31.5685 29.4402 31.4357C29.3017 31.303 29.2324 31.1385 29.2324 30.9423Z" fill="#CBCBCB"/>
<rect x="65.0195" y="11.411" width="94.7852" height="6.51367" fill="#EEEEEE"/>
<rect x="65.0195" y="19.8339" width="12.5781" height="6.51367" fill="#EEEEEE"/>
<rect x="65.0195" y="30.8397" width="94.7852" height="1.34766" fill="#EEEEEE"/>
<rect x="65.0195" y="33.9843" width="94.7852" height="1.34766" fill="#EEEEEE"/>
<rect x="65.0195" y="37.1288" width="94.7852" height="1.34766" fill="#EEEEEE"/>
<rect x="65.0195" y="40.2733" width="94.7852" height="1.34766" fill="#EEEEEE"/>
<rect x="65.0195" y="43.4178" width="94.7852" height="1.34766" fill="#EEEEEE"/>
<rect x="65.0195" y="46.5624" width="94.7852" height="1.34766" fill="#EEEEEE"/>
<rect x="65.0195" y="49.7069" width="94.7852" height="1.34766" fill="#EEEEEE"/>
<rect x="65.0195" y="52.8514" width="94.7852" height="1.34766" fill="#EEEEEE"/>
<rect x="65.0195" y="55.996" width="94.7852" height="1.34766" fill="#EEEEEE"/>
<rect x="65.0195" y="59.1405" width="94.7852" height="1.34766" fill="#EEEEEE"/>
<rect x="65.0195" y="62.285" width="94.7852" height="1.34766" fill="#EEEEEE"/>
<rect x="65.0195" y="65.4296" width="94.7852" height="1.34766" fill="#EEEEEE"/>
<rect x="65.0195" y="68.5741" width="28.1885" height="1.34766" fill="#EEEEEE"/>
</svg>
