<svg width="20" height="20" viewBox="0 0 20 20" fill="none" xmlns="http://www.w3.org/2000/svg">
<path d="M7.55764 0.00164715C7.09756 -0.0255805 6.70005 0.287988 6.6698 0.702042C6.63954 1.11609 6.98798 1.4738 7.44807 1.50104C13.2828 1.84635 17.9493 6.04672 18.3315 11.2979C18.3615 11.712 18.7589 12.0257 19.2191 11.9986C19.6791 11.9714 20.0277 11.6138 19.9976 11.1998C19.5607 5.19614 14.2284 0.396438 7.55764 0.00164715Z" fill="white" fill-opacity="0.6"/>
<path d="M6.10996 13.6213C6.80171 13.6213 7.36249 13.1167 7.36249 12.4941C7.36249 11.8716 6.80171 11.3669 6.10996 11.3669C5.4182 11.3669 4.85742 11.8716 4.85742 12.4941C4.85742 13.1167 5.4182 13.6213 6.10996 13.6213Z" fill="white" fill-opacity="0.6"/>
<path d="M5.52997 19.782L5.09744 19.3955C4.8312 19.1576 4.46501 18.8302 4.06518 18.4727C3.26585 17.7578 2.33099 16.9209 1.79197 16.4357C-0.597323 14.2856 -0.597323 10.7995 1.79197 8.64923C4.18125 6.49909 8.05506 6.49909 10.4443 8.64923C12.8336 10.7995 12.8336 14.2856 10.4443 16.4357C9.94964 16.881 9.01471 17.7179 8.20434 18.4428L6.70686 19.7815C6.38135 20.0724 5.85553 20.0728 5.52997 19.782ZM2.97264 9.71179C1.23542 11.2751 1.23542 13.8099 2.97264 15.3733C3.50954 15.8564 4.44259 16.6917 5.24221 17.4068L6.11808 18.19L7.02728 17.377C7.838 16.6518 8.77104 15.8166 9.26361 15.3733C11.0009 13.8099 11.0009 11.2751 9.26361 9.71179C7.52644 8.14845 4.70986 8.14845 2.97264 9.71179Z" fill="white" fill-opacity="0.6"/>
<path d="M7.58182 3.48429C7.1226 3.447 6.71675 3.75179 6.67531 4.16505C6.63387 4.57831 6.97255 4.94355 7.43177 4.98084C11.1588 5.28348 14.1286 7.95524 14.4662 11.3089C14.5078 11.7222 14.9138 12.0268 15.3729 11.9894C15.8321 11.9519 16.1707 11.5866 16.1291 11.1733C15.7187 7.09672 12.1122 3.85216 7.58182 3.48429Z" fill="white" fill-opacity="0.6"/>
</svg>
