<svg width="18" height="18" viewBox="0 0 18 18" fill="none" xmlns="http://www.w3.org/2000/svg">
<path d="M9 11.0833V12.75M4.3125 7.35733C4.75446 7.33333 5.2993 7.33333 6 7.33333H12C12.7007 7.33333 13.2456 7.33333 13.6875 7.35733M4.3125 7.35733C3.76095 7.38725 3.36965 7.45458 3.03565 7.60583C2.50644 7.8455 2.07619 8.22792 1.80654 8.69833C1.5 9.23317 1.5 9.93317 1.5 11.3333V12.5C1.5 13.9002 1.5 14.6002 1.80654 15.135C2.07619 15.6054 2.50644 15.9878 3.03565 16.2275C3.63728 16.5 4.42485 16.5 6 16.5H12C13.5752 16.5 14.3627 16.5 14.9644 16.2275C15.4936 15.9878 15.9238 15.6054 16.1934 15.135C16.5 14.6002 16.5 13.9002 16.5 12.5V11.3333C16.5 9.93317 16.5 9.23317 16.1934 8.69833C15.9238 8.22792 15.4936 7.8455 14.9644 7.60583C14.6303 7.45458 14.239 7.38725 13.6875 7.35733M4.3125 7.35733V5.66667C4.3125 3.36548 6.41117 1.5 9 1.5C11.5888 1.5 13.6875 3.36548 13.6875 5.66667V7.35733" stroke="black" stroke-width="2" stroke-linecap="round" stroke-linejoin="round"/>
</svg>
