<svg width="34" height="38" viewBox="0 0 34 38" fill="none" xmlns="http://www.w3.org/2000/svg">
<path d="M18.75 1.26135H19.2273C24.9344 1.26135 27.7879 1.26135 29.7696 2.65756C30.3374 3.0576 30.8415 3.53202 31.2665 4.06641C32.75 5.93153 32.75 8.61723 32.75 13.9886V18.4432C32.75 23.6287 32.75 26.2215 31.9294 28.2923C30.6101 31.6214 27.82 34.2473 24.2829 35.489C22.0826 36.2614 19.3278 36.2614 13.8182 36.2614C10.6698 36.2614 9.09563 36.2614 7.83836 35.82C5.81714 35.1105 4.22281 33.6099 3.46894 31.7076C3 30.5243 3 29.0427 3 26.0795V18.7614" stroke="white" stroke-width="2" stroke-linecap="round" stroke-linejoin="round"/>
<path d="M32.75 18.7614C32.75 21.983 30.1383 24.5947 26.9167 24.5947C25.7515 24.5947 24.3779 24.3905 23.2451 24.6941C22.2386 24.9638 21.4524 25.7499 21.1827 26.7565C20.8792 27.8893 21.0833 29.2629 21.0833 30.428C21.0833 33.6497 18.4717 36.2614 15.25 36.2614" stroke="white" stroke-width="2" stroke-linecap="round" stroke-linejoin="round"/>
<path d="M15.25 8.26135L1.25 8.26135M8.25 1.26135V15.2614" stroke="white" stroke-width="2" stroke-linecap="round"/>
</svg>
