<svg width="24" height="27" viewBox="0 0 24 27" fill="none" xmlns="http://www.w3.org/2000/svg">
<path d="M12 11.1668C13.1 11.1668 14 10.182 14 8.97829V4.60116C14 3.39745 13.1 2.4126 12 2.4126C10.9 2.4126 10 3.39745 10 4.60116V8.97829C10 10.182 10.9 11.1668 12 11.1668Z" fill="white"/>
<path d="M19.1 5.58591C18.8 5.25762 18.5 5.14819 18 5.14819C17.2 5.14819 16.5 5.91419 16.5 6.78962C16.5 7.22733 16.7 7.66504 16.9 7.99332C18.2 9.41589 18.9 11.2762 18.9 13.3553C18.9 17.623 15.8 21.0153 11.9 21.0153C8 21.0153 4.9 17.623 4.9 13.3553C4.9 11.2762 5.7 9.30646 7 7.99332C7.3 7.66504 7.5 7.22733 7.5 6.78962C7.5 5.91419 6.8 5.14819 6 5.14819C5.6 5.14819 5.2 5.36705 4.9 5.58591C3.1 7.55561 2 10.2913 2 13.3553C2 19.3738 6.5 24.2981 12 24.2981C17.5 24.2981 22 19.3738 22 13.3553C22 10.2913 20.9 7.55561 19.1 5.58591Z" fill="white"/>
<path d="M12.4004 11.1668C13.5004 11.1668 14.4004 10.182 14.4004 8.97829V4.60116C14.4004 3.39745 13.5004 2.4126 12.4004 2.4126C11.3004 2.4126 10.4004 3.39745 10.4004 4.60116V8.97829C10.4004 10.182 11.3004 11.1668 12.4004 11.1668Z" fill="white"/>
<path d="M19.5004 5.58591C19.2004 5.25762 18.9004 5.14819 18.4004 5.14819C17.6004 5.14819 16.9004 5.91419 16.9004 6.78962C16.9004 7.22733 17.1004 7.66504 17.3004 7.99332C18.6004 9.41589 19.3004 11.2762 19.3004 13.3553C19.3004 17.623 16.2004 21.0153 12.3004 21.0153C8.40039 21.0153 5.30039 17.623 5.30039 13.3553C5.30039 11.2762 6.10039 9.30646 7.40039 7.99332C7.70039 7.66504 7.90039 7.22733 7.90039 6.78962C7.90039 5.91419 7.20039 5.14819 6.40039 5.14819C6.00039 5.14819 5.60039 5.36705 5.30039 5.58591C3.50039 7.55561 2.40039 10.2913 2.40039 13.3553C2.40039 19.3738 6.90039 24.2981 12.4004 24.2981C17.9004 24.2981 22.4004 19.3738 22.4004 13.3553C22.4004 10.2913 21.3004 7.55561 19.5004 5.58591Z" fill="white"/>
</svg>
