<svg width="34" height="33" viewBox="0 0 34 33" fill="none" xmlns="http://www.w3.org/2000/svg">
<path d="M26.6639 7.45248L19.5552 3.34123C18.1939 2.55748 16.0627 2.55748 14.7014 3.34123L7.52395 7.47998C4.6777 9.40498 4.5127 9.69373 4.5127 12.76V20.2262C4.5127 23.2925 4.6777 23.595 7.57895 25.5475L14.6877 29.6587C15.3752 30.0575 16.2552 30.25 17.1214 30.25C17.9877 30.25 18.8677 30.0575 19.5414 29.6587L26.7189 25.52C29.5652 23.595 29.7302 23.3062 29.7302 20.24V12.76C29.7302 9.69373 29.5652 9.40498 26.6639 7.45248Z" fill="white"/>
<path d="M17.1211 20.9688C19.5891 20.9688 21.5898 18.968 21.5898 16.5C21.5898 14.032 19.5891 12.0312 17.1211 12.0312C14.6531 12.0312 12.6523 14.032 12.6523 16.5C12.6523 18.968 14.6531 20.9688 17.1211 20.9688Z" fill="#181818"/>
</svg>
