<svg width="18" height="18" viewBox="0 0 18 18" fill="none" xmlns="http://www.w3.org/2000/svg">
<path fill-rule="evenodd" clip-rule="evenodd" d="M0.757811 11.25H17.2495C17.6635 11.25 17.9995 10.914 17.9995 10.5C17.9995 10.086 17.6635 9.75 17.2495 9.75H0.757811C0.343812 9.75 0.0078125 10.086 0.0078125 10.5C0.0078125 10.914 0.343812 11.25 0.757811 11.25Z" fill="white" fill-opacity="0.6"/>
<path fill-rule="evenodd" clip-rule="evenodd" d="M0.763671 18H17.2494C17.6634 18 17.9994 17.664 17.9994 17.25C17.9994 16.836 17.6634 16.5 17.2494 16.5H0.763671C0.349671 16.5 0.0136719 16.836 0.0136719 17.25C0.0136719 17.664 0.349671 18 0.763671 18Z" fill="white" fill-opacity="0.6"/>
<path fill-rule="evenodd" clip-rule="evenodd" d="M8.99609 4.5H17.2506C17.6646 4.5 18.0006 4.164 18.0006 3.75C18.0006 3.336 17.6646 3 17.2506 3H8.99609C8.58209 3 8.24609 3.336 8.24609 3.75C8.24609 4.164 8.58209 4.5 8.99609 4.5Z" fill="white" fill-opacity="0.6"/>
<path fill-rule="evenodd" clip-rule="evenodd" d="M6.37199 4.401C6.60599 4.2675 6.74999 4.01925 6.74999 3.75C6.74999 3.48075 6.60599 3.2325 6.37199 3.099L1.122 0.0990031C0.890248 -0.0337469 0.604499 -0.0329967 0.373499 0.101253C0.1425 0.235503 0 0.483003 0 0.750003V6.75C0 7.017 0.1425 7.2645 0.373499 7.39875C0.604499 7.533 0.890248 7.53375 1.122 7.401L6.37199 4.401Z" fill="white" fill-opacity="0.6"/>
</svg>
