<svg width="31" height="25" viewBox="0 0 31 25" fill="none" xmlns="http://www.w3.org/2000/svg">
<path d="M28.7461 4.16667H2.49609C1.99881 4.16667 1.5219 3.94717 1.17027 3.55647C0.818638 3.16577 0.621094 2.63587 0.621094 2.08333C0.621094 1.5308 0.818638 1.0009 1.17027 0.610195C1.5219 0.219494 1.99881 0 2.49609 0H28.7461C29.2434 0 29.7203 0.219494 30.0719 0.610195C30.4236 1.0009 30.6211 1.5308 30.6211 2.08333C30.6211 2.63587 30.4236 3.16577 30.0719 3.55647C29.7203 3.94717 29.2434 4.16667 28.7461 4.16667Z" fill="white"/>
<path d="M28.7461 14.5832H2.49609C1.99881 14.5832 1.5219 14.3637 1.17027 13.973C0.818638 13.5823 0.621094 13.0524 0.621094 12.4998C0.621094 11.9473 0.818638 11.4174 1.17027 11.0267C1.5219 10.636 1.99881 10.4165 2.49609 10.4165H28.7461C29.2434 10.4165 29.7203 10.636 30.0719 11.0267C30.4236 11.4174 30.6211 11.9473 30.6211 12.4998C30.6211 13.0524 30.4236 13.5823 30.0719 13.973C29.7203 14.3637 29.2434 14.5832 28.7461 14.5832Z" fill="white"/>
<path d="M28.7461 25.0002H2.49609C1.99881 25.0002 1.5219 24.7807 1.17027 24.39C0.818638 23.9993 0.621094 23.4694 0.621094 22.9168C0.621094 22.3643 0.818638 21.8344 1.17027 21.4437C1.5219 21.053 1.99881 20.8335 2.49609 20.8335H28.7461C29.2434 20.8335 29.7203 21.053 30.0719 21.4437C30.4236 21.8344 30.6211 22.3643 30.6211 22.9168C30.6211 23.4694 30.4236 23.9993 30.0719 24.39C29.7203 24.7807 29.2434 25.0002 28.7461 25.0002Z" fill="white"/>
</svg>
