<svg width="20" height="20" viewBox="0 0 20 20" fill="none" xmlns="http://www.w3.org/2000/svg">
<path d="M16.0001 9.60002C16.0001 9.96668 15.7001 10.2667 15.3335 10.2667H9.13346C8.7668 10.2667 8.4668 9.96668 8.4668 9.60002V8.60002C8.4668 8.23335 8.7668 7.93335 9.13346 7.93335H15.3335C15.7001 7.93335 16.0001 8.23335 16.0001 8.60002V9.60002Z" fill="white" fill-opacity="0.6"/>
<path d="M6.46667 9.60002C6.46667 9.96668 6.16667 10.2667 5.8 10.2667H4.66667C4.3 10.2667 4 9.96668 4 9.60002V8.60002C4 8.23335 4.3 7.93335 4.66667 7.93335H5.8C6.16667 7.93335 6.46667 8.23335 6.46667 8.60002V9.60002Z" fill="white" fill-opacity="0.6"/>
<path d="M6.46667 13.9333C6.46667 14.2999 6.16667 14.5999 5.8 14.5999H4.66667C4.3 14.5999 4 14.2999 4 13.9333V12.9333C4 12.5666 4.3 12.2666 4.66667 12.2666H5.8C6.16667 12.2666 6.46667 12.5666 6.46667 12.9333V13.9333Z" fill="white" fill-opacity="0.6"/>
<path d="M16.0001 13.9333C16.0001 14.2999 15.7001 14.5999 15.3335 14.5999H9.13346C8.7668 14.5999 8.4668 14.2999 8.4668 13.9333V12.9333C8.4668 12.5666 8.7668 12.2666 9.13346 12.2666H15.3335C15.7001 12.2666 16.0001 12.5666 16.0001 12.9333V13.9333Z" fill="white" fill-opacity="0.6"/>
<path d="M17.9333 0H2.06667C0.933334 0 0 0.933334 0 2.06667V17.9333C0 19.0667 0.933334 20 2.06667 20H17.9333C19.0667 20 20 19.0667 20 17.9333V2.06667C20 0.933334 19.0667 0 17.9333 0ZM9.13333 2.46667C9.13333 2.2 9.4 2 9.66667 2H17.4667C17.7333 2 17.9333 2.26667 17.9333 2.53333V3.53333C17.9333 3.8 17.6667 4 17.4 4H9.6C9.33333 4 9.13333 3.73333 9.13333 3.46667V2.46667ZM6.46667 2C7.03333 2 7.46667 2.43333 7.46667 3C7.46667 3.56667 7.03333 4 6.46667 4C5.9 4 5.46667 3.56667 5.46667 3C5.46667 2.43333 5.9 2 6.46667 2ZM3 2C3.56667 2 4 2.43333 4 3C4 3.56667 3.56667 4 3 4C2.43333 4 2 3.56667 2 3C2 2.43333 2.43333 2 3 2ZM18 17.5333C18 17.8 17.7333 18 17.4667 18H16V17.2333C16 16.8667 15.7 16.5667 15.3333 16.5667H9.13333C8.76667 16.5667 8.46667 16.8667 8.46667 17.2333V18H6.46667V17.2333C6.46667 16.8667 6.16667 16.5667 5.8 16.5667H4.66667C4.3 16.5667 4 16.8667 4 17.2333V18H2.46667C2.2 18 2 17.7333 2 17.4667V6.46667C2 6.2 2.26667 6 2.53333 6H17.5333C17.8 6 18 6.26667 18 6.53333V17.5333Z" fill="white" fill-opacity="0.6"/>
</svg>
