<svg width="20" height="21" viewBox="0 0 20 21" fill="none" xmlns="http://www.w3.org/2000/svg">
<path d="M16.5301 17.6547C16.3801 17.6548 16.2334 17.6113 16.1087 17.5297C15.9839 17.4481 15.8867 17.332 15.8292 17.1962C15.7718 17.0603 15.7568 16.9109 15.7861 16.7667C15.8154 16.6225 15.8877 16.49 15.9938 16.3861C17.1815 15.2237 17.9906 13.742 18.319 12.1286C18.6473 10.5153 18.4801 8.84267 17.8384 7.3225C17.1967 5.80233 16.1094 4.5029 14.7142 3.58864C13.3189 2.67438 11.6783 2.18637 10 2.18637C8.3217 2.18637 6.68112 2.67438 5.28584 3.58864C3.89056 4.5029 2.8033 5.80233 2.16162 7.3225C1.51994 8.84267 1.35269 10.5153 1.68103 12.1286C2.00937 13.742 2.81854 15.2237 4.00616 16.3861C4.07658 16.4552 4.13244 16.5371 4.17055 16.6273C4.20867 16.7175 4.22828 16.8142 4.22828 16.9118C4.22828 17.0094 4.20867 17.1061 4.17055 17.1963C4.13244 17.2865 4.07658 17.3684 4.00616 17.4375C3.93574 17.5065 3.85213 17.5612 3.76012 17.5986C3.66811 17.636 3.5695 17.6552 3.46991 17.6552C3.37032 17.6552 3.2717 17.636 3.17969 17.5986C3.08768 17.5612 3.00408 17.5065 2.93366 17.4375C1.5338 16.0671 0.580063 14.3204 0.193129 12.4185C-0.193805 10.5167 0.00344891 8.54502 0.759932 6.75306C1.51642 4.96111 2.79813 3.42938 4.44291 2.35168C6.08769 1.27397 8.02162 0.69873 10 0.69873C11.9784 0.69873 13.9123 1.27397 15.5571 2.35168C17.2019 3.42938 18.4836 4.96111 19.2401 6.75306C19.9966 8.54502 20.1938 10.5167 19.8069 12.4185C19.4199 14.3204 18.4662 16.0671 17.0663 17.4375C16.9961 17.5067 16.9125 17.5615 16.8204 17.5988C16.7284 17.6361 16.6297 17.6551 16.5301 17.6547ZM13.5752 14.7595C13.4252 14.7596 13.2786 14.7161 13.1538 14.6345C13.0291 14.5529 12.9318 14.4368 12.8744 14.301C12.817 14.1652 12.802 14.0157 12.8313 13.8715C12.8606 13.7273 12.9329 13.5948 13.039 13.4909C13.64 12.9016 14.0493 12.1509 14.215 11.3336C14.3808 10.5163 14.2956 9.66919 13.9703 8.89936C13.6449 8.12952 13.094 7.47154 12.3872 7.00862C11.6804 6.54569 10.8494 6.29861 9.99932 6.29861C9.14925 6.29861 8.31828 6.54569 7.61146 7.00862C6.90465 7.47154 6.35373 8.12952 6.02838 8.89936C5.70303 9.66919 5.61785 10.5163 5.78361 11.3336C5.94937 12.1509 6.35863 12.9016 6.95965 13.4909C7.10187 13.6302 7.18184 13.8191 7.18197 14.0161C7.1821 14.2132 7.10237 14.4022 6.96033 14.5416C6.81829 14.681 6.62557 14.7594 6.42456 14.7595C6.22356 14.7597 6.03073 14.6815 5.88851 14.5423C5.07553 13.7452 4.52192 12.7297 4.29768 11.6242C4.07344 10.5187 4.18864 9.3728 4.62872 8.33148C5.0688 7.29015 5.81399 6.40013 6.77006 5.77394C7.72614 5.14776 8.85016 4.81353 10 4.81353C11.1498 4.81353 12.2739 5.14776 13.2299 5.77394C14.186 6.40013 14.9312 7.29015 15.3713 8.33148C15.8114 9.3728 15.9266 10.5187 15.7023 11.6242C15.4781 12.7297 14.9245 13.7452 14.1115 14.5423C13.9696 14.6813 13.7772 14.7595 13.5766 14.7595H13.5752ZM12.0472 19.2116H10.7572V12.398C11.205 12.225 11.5771 11.9043 11.8095 11.4912C12.0418 11.078 12.1199 10.5983 12.03 10.1348C11.9402 9.67131 11.6882 9.25305 11.3175 8.95218C10.9468 8.65131 10.4806 8.48667 9.99932 8.48667C9.51803 8.48667 9.05182 8.65131 8.68111 8.95218C8.31039 9.25305 8.0584 9.67131 7.96859 10.1348C7.87878 10.5983 7.95679 11.078 8.18915 11.4912C8.42152 11.9043 8.79368 12.225 9.24145 12.398V19.2116H7.95281C7.75163 19.2116 7.55869 19.2899 7.41643 19.4294C7.27417 19.5688 7.19426 19.7579 7.19426 19.9552C7.19426 20.1524 7.27417 20.3415 7.41643 20.4809C7.55869 20.6204 7.75163 20.6987 7.95281 20.6987H12.0472C12.2484 20.6987 12.4413 20.6204 12.5836 20.4809C12.7258 20.3415 12.8057 20.1524 12.8057 19.9552C12.8057 19.7579 12.7258 19.5688 12.5836 19.4294C12.4413 19.2899 12.2484 19.2116 12.0472 19.2116Z" fill="white"/>
</svg>
