<svg width="20" height="20" viewBox="0 0 20 20" fill="none" xmlns="http://www.w3.org/2000/svg">
<path d="M14.4414 12.3281C15.1836 11.1604 15.619 9.775 15.619 8.28568C15.619 4.12448 12.2495 0.75 8.09323 0.75C3.93203 0.75 0.5625 4.12448 0.5625 8.28568C0.5625 12.4469 3.93203 15.8214 8.08828 15.8214C9.5974 15.8214 11.0026 15.376 12.1802 14.6141L12.5216 14.3766L17.8951 19.75L19.5625 18.0529L14.194 12.6794L14.4414 12.3281ZM12.3089 4.075C13.432 5.19818 14.0505 6.69245 14.0505 8.28073C14.0505 9.86901 13.432 11.3633 12.3089 12.4865C11.1857 13.6096 9.69141 14.2281 8.10313 14.2281C6.51484 14.2281 5.02057 13.6096 3.8974 12.4865C2.77422 11.3633 2.15573 9.86901 2.15573 8.28073C2.15573 6.69245 2.77422 5.19818 3.8974 4.075C5.02057 2.95182 6.51484 2.33333 8.10313 2.33333C9.69141 2.33333 11.1857 2.95182 12.3089 4.075Z" fill="white" fill-opacity="0.66"/>
</svg>
