<svg width="24" height="27" viewBox="0 0 24 27" fill="none" xmlns="http://www.w3.org/2000/svg">
<g clip-path="url(#clip0_1_59896)">
<path d="M12 16.8267C13.6569 16.8267 15 15.3569 15 13.5438C15 11.7308 13.6569 10.261 12 10.261C10.3431 10.261 9 11.7308 9 13.5438C9 15.3569 10.3431 16.8267 12 16.8267Z" stroke="white" stroke-width="2" stroke-linecap="round" stroke-linejoin="round"/>
<path d="M19.4 16.8268C19.2669 17.1568 19.2272 17.5229 19.286 17.8779C19.3448 18.2329 19.4995 18.5605 19.73 18.8184L19.79 18.884C19.976 19.0873 20.1235 19.3287 20.2241 19.5943C20.3248 19.86 20.3766 20.1448 20.3766 20.4324C20.3766 20.72 20.3248 21.0048 20.2241 21.2705C20.1235 21.5362 19.976 21.7776 19.79 21.9808C19.6043 22.1843 19.3837 22.3458 19.1409 22.4559C18.8981 22.566 18.6378 22.6227 18.375 22.6227C18.1122 22.6227 17.8519 22.566 17.6091 22.4559C17.3663 22.3458 17.1457 22.1843 16.96 21.9808L16.9 21.9152C16.6643 21.6629 16.365 21.4937 16.0406 21.4293C15.7162 21.365 15.3816 21.4084 15.08 21.5541C14.7842 21.6928 14.532 21.9231 14.3543 22.2167C14.1766 22.5103 14.0813 22.8543 14.08 23.2064V23.3925C14.08 23.9729 13.8693 24.5296 13.4942 24.94C13.1191 25.3504 12.6104 25.581 12.08 25.581C11.5496 25.581 11.0409 25.3504 10.6658 24.94C10.2907 24.5296 10.08 23.9729 10.08 23.3925V23.294C10.0723 22.9318 9.96512 22.5805 9.77251 22.2858C9.5799 21.9911 9.31074 21.7667 9 21.6416C8.69838 21.4959 8.36381 21.4525 8.03941 21.5169C7.71502 21.5812 7.41568 21.7505 7.18 22.0027L7.12 22.0684C6.93425 22.2719 6.71368 22.4333 6.47088 22.5434C6.22808 22.6536 5.96783 22.7103 5.705 22.7103C5.44217 22.7103 5.18192 22.6536 4.93912 22.5434C4.69632 22.4333 4.47575 22.2719 4.29 22.0684C4.10405 21.8651 3.95653 21.6237 3.85588 21.3581C3.75523 21.0924 3.70343 20.8076 3.70343 20.52C3.70343 20.2324 3.75523 19.9476 3.85588 19.6819C3.95653 19.4162 4.10405 19.1748 4.29 18.9716L4.35 18.9059C4.58054 18.648 4.73519 18.3205 4.794 17.9655C4.85282 17.6105 4.81312 17.2444 4.68 16.9143C4.55324 16.5907 4.34276 16.3146 4.07447 16.1202C3.80618 15.9258 3.49179 15.8214 3.17 15.82H3C2.46957 15.82 1.96086 15.5895 1.58579 15.179C1.21071 14.7686 1 14.2119 1 13.6315C1 13.051 1.21071 12.4944 1.58579 12.0839C1.96086 11.6735 2.46957 11.4429 3 11.4429H3.09C3.42099 11.4344 3.742 11.3172 4.0113 11.1064C4.28059 10.8957 4.48572 10.6011 4.6 10.2611C4.73312 9.93103 4.77282 9.56491 4.714 9.20993C4.65519 8.85495 4.50054 8.52739 4.27 8.26949L4.21 8.20384C4.02405 8.00058 3.87653 7.75921 3.77588 7.49352C3.67523 7.22783 3.62343 6.94304 3.62343 6.65543C3.62343 6.36782 3.67523 6.08303 3.77588 5.81734C3.87653 5.55165 4.02405 5.31028 4.21 5.10702C4.39575 4.90354 4.61632 4.74211 4.85912 4.63197C5.10192 4.52183 5.36217 4.46515 5.625 4.46515C5.88783 4.46515 6.14808 4.52183 6.39088 4.63197C6.63368 4.74211 6.85425 4.90354 7.04 5.10702L7.1 5.17268C7.33568 5.42495 7.63502 5.59418 7.95941 5.65854C8.28381 5.72291 8.61838 5.67946 8.92 5.53379H9C9.29577 5.39508 9.54802 5.16475 9.72569 4.87117C9.90337 4.57758 9.99872 4.23355 10 3.88143V3.6954C10 3.11496 10.2107 2.55829 10.5858 2.14785C10.9609 1.73742 11.4696 1.50684 12 1.50684C12.5304 1.50684 13.0391 1.73742 13.4142 2.14785C13.7893 2.55829 14 3.11496 14 3.6954V3.79388C14.0013 4.14601 14.0966 4.49004 14.2743 4.78362C14.452 5.07721 14.7042 5.30753 15 5.44625C15.3016 5.59191 15.6362 5.63537 15.9606 5.571C16.285 5.50664 16.5843 5.33741 16.82 5.08514L16.88 5.01948C17.0657 4.81599 17.2863 4.65457 17.5291 4.54443C17.7719 4.43429 18.0322 4.3776 18.295 4.3776C18.5578 4.3776 18.8181 4.43429 19.0609 4.54443C19.3037 4.65457 19.5243 4.81599 19.71 5.01948C19.896 5.22274 20.0435 5.46411 20.1441 5.7298C20.2448 5.99549 20.2966 6.28028 20.2966 6.56789C20.2966 6.8555 20.2448 7.14029 20.1441 7.40598C20.0435 7.67166 19.896 7.91304 19.71 8.1163L19.65 8.18195C19.4195 8.43985 19.2648 8.76741 19.206 9.12239C19.1472 9.47737 19.1869 9.84349 19.32 10.1735V10.2611C19.4468 10.5847 19.6572 10.8608 19.9255 11.0552C20.1938 11.2496 20.5082 11.354 20.83 11.3554H21C21.5304 11.3554 22.0391 11.5859 22.4142 11.9964C22.7893 12.4068 23 12.9635 23 13.5439C23 14.1244 22.7893 14.681 22.4142 15.0915C22.0391 15.5019 21.5304 15.7325 21 15.7325H20.91C20.5882 15.7339 20.2738 15.8382 20.0055 16.0327C19.7372 16.2271 19.5268 16.5031 19.4 16.8268V16.8268Z" stroke="white" stroke-width="2" stroke-linecap="round" stroke-linejoin="round"/>
</g>
<defs>
<clipPath id="clip0_1_59896">
<rect width="24" height="26.2628" fill="white" transform="translate(0 0.412598)"/>
</clipPath>
</defs>
</svg>
