<svg width="20" height="20" viewBox="0 0 20 20" fill="none" xmlns="http://www.w3.org/2000/svg">
<path d="M20 16.003V20H0V16.003H16.2314C16.2389 15.1573 16.1046 14.2014 15.5941 13.496C15.144 12.874 14.4508 12.5246 13.5324 12.4515C13.4574 12.6004 13.3129 12.705 13.1411 12.705H12.3719C12.1241 12.705 11.923 12.4945 11.923 12.2344C11.923 11.9743 12.1241 11.7636 12.3719 11.7636H13.1411C13.3418 11.7636 13.5055 11.9044 13.5628 12.0947C14.5807 12.1757 15.3557 12.5724 15.8672 13.2796C16.4353 14.0655 16.5846 15.098 16.5776 16.0022H20V16.003ZM10 8.74765C12.3044 8.74765 14.1726 6.78959 14.1726 4.3737C14.1726 1.95781 12.3044 0 10 0C7.69531 0 5.82739 1.95806 5.82739 4.37395C5.82739 6.78984 7.69531 8.74765 10 8.74765ZM15.1105 13.9184C14.8118 13.5054 14.3712 13.2552 13.7691 13.1577C13.5904 13.2995 13.3714 13.3797 13.1411 13.3797H12.3719C11.79 13.3797 11.3161 12.8831 11.3161 12.2726C11.3161 11.6626 11.7898 11.1658 12.3719 11.1658H13.1411C13.4462 11.1658 13.7266 11.304 13.9211 11.5328C14.8327 11.6631 15.5686 12.0362 16.1163 12.6437C16.1146 12.621 16.1153 12.5979 16.1134 12.5752L15.9213 11.5738C15.4528 9.99516 14.2321 8.76266 12.6994 8.33766C11.9905 9.0309 11.0432 9.45844 10 9.45844C8.95654 9.45844 8.00874 9.03064 7.30056 8.33766C5.32872 8.88405 3.86841 10.7647 3.86841 13.0005V15.4036H15.5977C15.5363 14.786 15.3712 14.2788 15.1105 13.9184Z" fill="white" fill-opacity="0.6"/>
</svg>
