<svg width="42" height="43" viewBox="0 0 42 43" fill="none" xmlns="http://www.w3.org/2000/svg">
<path fill-rule="evenodd" clip-rule="evenodd" d="M1.61539 26.5962C2.50753 26.5962 3.23077 27.3195 3.23077 28.2116C3.23077 31.3032 3.23419 33.4594 3.45294 35.0864C3.66542 36.6669 4.05408 37.5037 4.65018 38.0999C5.24627 38.6961 6.08322 39.0846 7.66364 39.2972C9.29055 39.5158 11.4468 39.5193 14.5385 39.5193H27.4615C30.5532 39.5193 32.7094 39.5158 34.3364 39.2972C35.9169 39.0846 36.7537 38.6961 37.3498 38.0999C37.946 37.5037 38.3346 36.6669 38.5472 35.0864C38.7658 33.4594 38.7692 31.3032 38.7692 28.2116C38.7692 27.3195 39.4925 26.5962 40.3846 26.5962C41.2767 26.5962 42 27.3195 42 28.2116V28.3298C42 31.2754 42 33.6496 41.7491 35.517C41.4885 37.4557 40.9308 39.0879 39.6344 40.3843C38.3378 41.6809 36.7056 42.2385 34.767 42.4991C32.8996 42.75 30.5254 42.75 27.5798 42.75H14.4203C11.4747 42.75 9.10048 42.75 7.23316 42.4991C5.29446 42.2385 3.66212 41.6809 2.36568 40.3845C1.06923 39.0879 0.511626 37.4557 0.250967 35.517C-8.51796e-05 33.6496 -4.19484e-05 31.2754 1.12851e-06 28.3298C1.12851e-06 28.2904 1.12851e-06 28.251 1.12851e-06 28.2116C1.12851e-06 27.3195 0.723241 26.5962 1.61539 26.5962Z" fill="white"/>
<path fill-rule="evenodd" clip-rule="evenodd" d="M21.0003 0.75C21.4539 0.75 21.8864 0.940659 22.1925 1.27537L30.8078 10.6984C31.4098 11.3569 31.3642 12.3787 30.7057 12.9807C30.0473 13.5827 29.0255 13.5369 28.4235 12.8785L22.6157 6.52618V30.3654C22.6157 31.2575 21.8924 31.9808 21.0003 31.9808C20.1082 31.9808 19.3849 31.2575 19.3849 30.3654V6.52618L13.5771 12.8785C12.9751 13.5369 11.9534 13.5827 11.2949 12.9807C10.6365 12.3787 10.5907 11.3569 11.1927 10.6984L19.8081 1.27537C20.1142 0.940659 20.5467 0.75 21.0003 0.75Z" fill="white"/>
</svg>
