<svg width="43" height="43" viewBox="0 0 43 43" fill="none" xmlns="http://www.w3.org/2000/svg">
<path d="M21.75 42.7612C18.88 42.7612 16.1675 42.21 13.6125 41.1075C11.0575 40.005 8.82625 38.5 6.91875 36.5925C5.01125 34.685 3.50625 32.4537 2.40375 29.8987C1.30125 27.3437 0.75 24.6312 0.75 21.7612C0.75 18.8562 1.30125 16.135 2.40375 13.5975C3.50625 11.06 5.01125 8.83748 6.91875 6.92998C8.82625 5.02248 11.0575 3.51748 13.6125 2.41498C16.1675 1.31248 18.88 0.76123 21.75 0.76123C24.655 0.76123 27.3762 1.31248 29.9137 2.41498C32.4512 3.51748 34.6737 5.02248 36.5812 6.92998C38.4888 8.83748 39.9937 11.06 41.0962 13.5975C42.1987 16.135 42.75 18.8562 42.75 21.7612C42.75 24.6312 42.1987 27.3437 41.0962 29.8987C39.9937 32.4537 38.4888 34.685 36.5812 36.5925C34.6737 38.5 32.4512 40.005 29.9137 41.1075C27.3762 42.21 24.655 42.7612 21.75 42.7612ZM21.75 38.4562C22.66 37.1962 23.4475 35.8837 24.1125 34.5187C24.7775 33.1537 25.32 31.7012 25.74 30.1612H17.76C18.18 31.7012 18.7225 33.1537 19.3875 34.5187C20.0525 35.8837 20.84 37.1962 21.75 38.4562ZM16.29 37.6162C15.66 36.4612 15.1087 35.2625 14.6362 34.02C14.1637 32.7775 13.77 31.4912 13.455 30.1612H7.26C8.275 31.9112 9.54375 33.4337 11.0662 34.7287C12.5887 36.0237 14.33 36.9862 16.29 37.6162ZM27.21 37.6162C29.17 36.9862 30.9112 36.0237 32.4337 34.7287C33.9562 33.4337 35.225 31.9112 36.24 30.1612H30.045C29.73 31.4912 29.3362 32.7775 28.8637 34.02C28.3912 35.2625 27.84 36.4612 27.21 37.6162ZM5.475 25.9612H12.615C12.51 25.2612 12.4312 24.57 12.3787 23.8875C12.3263 23.205 12.3 22.4962 12.3 21.7612C12.3 21.0262 12.3263 20.3175 12.3787 19.635C12.4312 18.9525 12.51 18.2612 12.615 17.5612H5.475C5.3 18.2612 5.16875 18.9525 5.08125 19.635C4.99375 20.3175 4.95 21.0262 4.95 21.7612C4.95 22.4962 4.99375 23.205 5.08125 23.8875C5.16875 24.57 5.3 25.2612 5.475 25.9612ZM16.815 25.9612H26.685C26.79 25.2612 26.8687 24.57 26.9212 23.8875C26.9737 23.205 27 22.4962 27 21.7612C27 21.0262 26.9737 20.3175 26.9212 19.635C26.8687 18.9525 26.79 18.2612 26.685 17.5612H16.815C16.71 18.2612 16.6312 18.9525 16.5787 19.635C16.5262 20.3175 16.5 21.0262 16.5 21.7612C16.5 22.4962 16.5262 23.205 16.5787 23.8875C16.6312 24.57 16.71 25.2612 16.815 25.9612ZM30.885 25.9612H38.025C38.2 25.2612 38.3312 24.57 38.4187 23.8875C38.5062 23.205 38.55 22.4962 38.55 21.7612C38.55 21.0262 38.5062 20.3175 38.4187 19.635C38.3312 18.9525 38.2 18.2612 38.025 17.5612H30.885C30.99 18.2612 31.0687 18.9525 31.1212 19.635C31.1737 20.3175 31.2 21.0262 31.2 21.7612C31.2 22.4962 31.1737 23.205 31.1212 23.8875C31.0687 24.57 30.99 25.2612 30.885 25.9612ZM30.045 13.3612H36.24C35.225 11.6112 33.9562 10.0887 32.4337 8.79373C30.9112 7.49873 29.17 6.53623 27.21 5.90623C27.84 7.06123 28.3912 8.25998 28.8637 9.50248C29.3362 10.745 29.73 12.0312 30.045 13.3612ZM17.76 13.3612H25.74C25.32 11.8212 24.7775 10.3687 24.1125 9.00373C23.4475 7.63873 22.66 6.32623 21.75 5.06623C20.84 6.32623 20.0525 7.63873 19.3875 9.00373C18.7225 10.3687 18.18 11.8212 17.76 13.3612ZM7.26 13.3612H13.455C13.77 12.0312 14.1637 10.745 14.6362 9.50248C15.1087 8.25998 15.66 7.06123 16.29 5.90623C14.33 6.53623 12.5887 7.49873 11.0662 8.79373C9.54375 10.0887 8.275 11.6112 7.26 13.3612Z" fill="white"/>
</svg>
